<svg xmlns="http://www.w3.org/2000/svg" viewBox="0 0 1011.2 261.6" width="1011" height="262" role="img" aria-label="KLARTEXT — fidel friczewski">
  <rect x="26.0" y="109.6" width="959.2" height="75.6" fill="#2c6b66" fill-opacity="0.22"/>
  <path d="M39.2 174.0V34.0H65.6V89.6H69.2L114.60000000000001 34.0H148.4L90.0 103.0L150.4 174.0H115.60000000000001L69.2 117.19999999999999H65.6V174.0Z M164.39999999999998 174.0V34.0H190.79999999999998V150.0H254.8V174.0Z M263.20000000000005 174.0 300.0 34.0H346.0L382.8 174.0H355.6L348.0 143.2H298.0L290.40000000000003 174.0ZM304.20000000000005 118.8H341.8L324.8 50.599999999999994H321.20000000000005Z M399.6 174.0V34.0H460.40000000000003Q473.6 34.0 483.40000000000003 38.599999999999994Q493.20000000000005 43.19999999999999 498.6 51.599999999999994Q504.00000000000006 60.0 504.00000000000006 71.39999999999999V73.8Q504.00000000000006 86.39999999999999 498.00000000000006 94.19999999999999Q492.00000000000006 102.0 483.20000000000005 105.6V109.2Q491.20000000000005 109.6 495.6 114.69999999999999Q500.00000000000006 119.8 500.00000000000006 128.2V174.0H473.6V132.0Q473.6 127.19999999999999 471.1 124.19999999999999Q468.6 121.19999999999999 462.80000000000007 121.19999999999999H426.00000000000006V174.0ZM426.00000000000006 97.19999999999999H457.6Q467.00000000000006 97.19999999999999 472.30000000000007 92.1Q477.6 87.0 477.6 78.6V76.6Q477.6 68.19999999999999 472.40000000000003 63.099999999999994Q467.20000000000005 58.0 457.6 58.0H426.00000000000006Z M556.0 174.0V58.0H515.2V34.0H623.2V58.0H582.4000000000001V174.0Z M641.2 174.0V34.0H731.2V58.0H667.6V91.39999999999999H725.6V115.4H667.6V150.0H732.4V174.0Z M743.2 174.0 784.2 103.39999999999999 743.6 34.0H773.6L801.4000000000001 84.6H805.0000000000001L832.8000000000001 34.0H862.8000000000001L822.2 103.39999999999999L863.2 174.0H833.2L805.0000000000001 122.19999999999999H801.4000000000001L773.2 174.0Z M913.2 174.0V58.0H872.4V34.0H980.4000000000001V58.0H939.6V174.0Z" fill="#232a2e"/>
  <rect x="26.0" y="188.2" width="959.2" height="4.0" fill="#2c6b66"/>
  <path d="M593.363 226.54V209.156H587.09V206.20399999999998H593.363V201.03799999999998Q593.363 199.644 594.2445 198.742Q595.1260000000001 197.83999999999997 596.5200000000001 197.83999999999997H604.556V200.792H597.6680000000001Q596.561 200.792 596.561 202.022V206.20399999999998H605.0480000000001V209.156H596.561V226.54Z M621.571 203.006Q620.423 203.006 619.562 202.14499999999998Q618.701 201.284 618.701 200.136Q618.701 198.947 619.562 198.10649999999998Q620.423 197.266 621.571 197.266Q622.7600000000001 197.266 623.6005 198.10649999999998Q624.441 198.947 624.441 200.136Q624.441 201.284 623.6005 202.14499999999998Q622.7600000000001 203.006 621.571 203.006ZM612.879 226.54V223.588H620.013V209.156H613.6170000000001V206.20399999999998H623.211V223.588H629.8530000000001V226.54Z M646.089 227.114Q643.383 227.114 641.1690000000001 225.90449999999998Q638.955 224.695 637.643 222.358Q636.331 220.021 636.331 216.7V216.04399999999998Q636.331 212.72299999999998 637.6635 210.4065Q638.996 208.09 641.1895 206.86Q643.383 205.63 646.0070000000001 205.63Q648.0980000000001 205.63 649.9225000000001 206.5525Q651.7470000000001 207.475 652.731 209.402H653.2230000000001V197.83999999999997H656.421V226.54H653.2230000000001V223.42399999999998H652.731Q651.7470000000001 225.31 649.8405 226.212Q647.9340000000001 227.114 646.089 227.114ZM646.417 224.07999999999998Q648.344 224.07999999999998 649.8815 223.15749999999997Q651.419 222.23499999999999 652.321 220.55399999999997Q653.2230000000001 218.873 653.2230000000001 216.618V216.126Q653.2230000000001 213.953 652.3005 212.272Q651.378 210.59099999999998 649.8405 209.6275Q648.303 208.664 646.417 208.664Q644.49 208.664 642.9525000000001 209.5865Q641.4150000000001 210.509 640.513 212.16949999999997Q639.611 213.82999999999998 639.611 216.04399999999998V216.7Q639.611 218.95499999999998 640.4925000000001 220.6155Q641.374 222.27599999999998 642.932 223.178Q644.49 224.07999999999998 646.417 224.07999999999998Z M671.6320000000001 227.114Q668.721 227.114 666.4865 225.7815Q664.2520000000001 224.44899999999998 662.981 222.0915Q661.71 219.73399999999998 661.71 216.618V215.634Q661.71 212.76399999999998 663.022 210.509Q664.3340000000001 208.254 666.6095 206.942Q668.885 205.63 671.714 205.63Q674.215 205.63 676.0395000000001 206.53199999999998Q677.864 207.434 679.0325 208.82799999999997Q680.201 210.22199999999998 680.7545 211.8005Q681.308 213.379 681.308 214.732V217.356H664.908Q665.0310000000001 220.349 666.8145000000001 222.2145Q668.5980000000001 224.07999999999998 671.714 224.07999999999998Q674.625 224.07999999999998 676.06 222.85Q677.495 221.62 678.028 219.898L681.062 220.718Q680.201 223.547 677.8845 225.3305Q675.568 227.114 671.6320000000001 227.114ZM664.99 214.404H678.11Q678.028 212.641 677.1055 211.34949999999998Q676.183 210.058 674.748 209.361Q673.313 208.664 671.714 208.664Q669.008 208.664 667.163 210.30399999999997Q665.318 211.944 664.99 214.404Z M687.6630000000001 226.54V223.588H695.0430000000001V200.792H687.9090000000001V197.83999999999997H698.2410000000001V223.588H705.6210000000001V226.54Z M743.9150000000001 226.54V209.156H737.642V206.20399999999998H743.9150000000001V201.03799999999998Q743.9150000000001 199.644 744.7965000000002 198.742Q745.6780000000001 197.83999999999997 747.0720000000001 197.83999999999997H755.1080000000001V200.792H748.2200000000001Q747.113 200.792 747.113 202.022V206.20399999999998H755.6000000000001V209.156H747.113V226.54Z M761.2990000000001 226.54V223.588H765.9730000000001V209.156H761.791V206.20399999999998H769.171V208.91H769.6630000000001Q770.4420000000001 207.22899999999998 771.8975 206.4295Q773.3530000000001 205.63 775.157 205.63Q778.191 205.63 780.0975000000001 207.639Q782.004 209.648 782.1270000000001 213.50199999999998L778.7650000000001 213.994Q778.7650000000001 211.165 777.412 209.91449999999998Q776.0590000000001 208.664 774.0910000000001 208.664Q771.59 208.664 770.3805 210.4885Q769.171 212.313 769.171 214.97799999999998V223.588H774.3370000000001V226.54Z M797.215 203.006Q796.067 203.006 795.206 202.14499999999998Q794.345 201.284 794.345 200.136Q794.345 198.947 795.206 198.10649999999998Q796.067 197.266 797.215 197.266Q798.4040000000001 197.266 799.2445 198.10649999999998Q800.085 198.947 800.085 200.136Q800.085 201.284 799.2445 202.14499999999998Q798.4040000000001 203.006 797.215 203.006ZM788.523 226.54V223.588H795.657V209.156H789.2610000000001V206.20399999999998H798.855V223.588H805.4970000000001V226.54Z M822.471 227.114Q819.642 227.114 817.2640000000001 225.90449999999998Q814.8860000000001 224.695 813.4305 222.358Q811.975 220.021 811.975 216.7V216.208Q811.975 212.928 813.4305 210.55Q814.8860000000001 208.172 817.2640000000001 206.901Q819.642 205.63 822.471 205.63Q825.0540000000001 205.63 827.0835000000001 206.6345Q829.113 207.63899999999998 830.4045000000001 209.402Q831.696 211.165 832.065 213.42L828.8670000000001 214.158Q828.7030000000001 212.72299999999998 827.9240000000001 211.47249999999997Q827.1450000000001 210.22199999999998 825.7715000000001 209.44299999999998Q824.398 208.664 822.389 208.664Q820.421 208.664 818.8015 209.6275Q817.182 210.59099999999998 816.2185 212.2925Q815.255 213.994 815.255 216.208V216.7Q815.255 218.99599999999998 816.2185 220.6565Q817.182 222.31699999999998 818.822 223.19849999999997Q820.462 224.07999999999998 822.471 224.07999999999998Q824.48 224.07999999999998 825.8535 223.2805Q827.2270000000001 222.481 827.9855 221.2305Q828.744 219.98 828.9490000000001 218.58599999999998L832.147 219.32399999999998Q831.7370000000001 221.57899999999998 830.4660000000001 223.34199999999998Q829.195 225.105 827.1655000000001 226.1095Q825.1360000000001 227.114 822.471 227.114Z M838.3790000000001 226.54V221.456L852.8930000000001 209.648V209.156H838.6250000000001V206.20399999999998H855.5990000000002V211.124L841.0030000000002 223.096V223.588H856.0910000000001V226.54Z M872.368 227.114Q869.457 227.114 867.2225000000001 225.7815Q864.988 224.44899999999998 863.7170000000001 222.0915Q862.446 219.73399999999998 862.446 216.618V215.634Q862.446 212.76399999999998 863.758 210.509Q865.07 208.254 867.3455 206.942Q869.621 205.63 872.45 205.63Q874.951 205.63 876.7755 206.53199999999998Q878.6 207.434 879.7685 208.82799999999997Q880.937 210.22199999999998 881.4905 211.8005Q882.044 213.379 882.044 214.732V217.356H865.644Q865.767 220.349 867.5505 222.2145Q869.3340000000001 224.07999999999998 872.45 224.07999999999998Q875.361 224.07999999999998 876.796 222.85Q878.231 221.62 878.764 219.898L881.798 220.718Q880.937 223.547 878.6205 225.3305Q876.304 227.114 872.368 227.114ZM865.726 214.404H878.846Q878.764 212.641 877.8415 211.34949999999998Q876.919 210.058 875.4839999999999 209.361Q874.049 208.664 872.45 208.664Q869.744 208.664 867.899 210.30399999999997Q866.054 211.944 865.726 214.404Z M888.7680000000001 226.54 885.5700000000002 206.20399999999998H888.8500000000001L891.5560000000002 225.064H892.0480000000001L894.4260000000002 206.20399999999998H900.3300000000002L902.7080000000001 225.064H903.2000000000002L905.9060000000001 206.20399999999998H909.1860000000001L905.988 226.54H900.0840000000001L897.6240000000001 207.68H897.1320000000001L894.6720000000001 226.54Z M922.7980000000001 227.114Q919.6410000000001 227.114 917.6320000000001 226.0275Q915.623 224.941 914.6390000000001 223.2395Q913.6550000000001 221.53799999999998 913.532 219.73399999999998L916.5660000000001 218.99599999999998Q916.7710000000001 221.333 918.3905000000001 222.7475Q920.0100000000001 224.16199999999998 922.6340000000001 224.16199999999998Q924.8890000000001 224.16199999999998 926.2625 223.2805Q927.6360000000001 222.399 927.6360000000001 220.79999999999998Q927.6360000000001 219.078 926.2830000000001 218.34Q924.9300000000001 217.602 921.8960000000001 217.397Q918.4110000000001 217.15099999999998 916.5045 215.73649999999998Q914.5980000000001 214.322 914.5980000000001 211.69799999999998V211.452Q914.5980000000001 209.52499999999998 915.6640000000001 208.2335Q916.7300000000001 206.94199999999998 918.4110000000001 206.286Q920.0920000000001 205.63 921.9780000000001 205.63Q924.6840000000001 205.63 926.4675000000001 206.5525Q928.2510000000001 207.475 929.1940000000001 208.9305Q930.1370000000001 210.386 930.3420000000001 211.944L927.3080000000001 212.682Q927.1440000000001 210.714 925.7500000000001 209.607Q924.3560000000001 208.5 922.142 208.5Q920.4200000000001 208.5 919.067 209.238Q917.714 209.976 917.714 211.452Q917.714 212.928 918.9645 213.707Q920.2150000000001 214.486 923.5360000000001 214.732Q927.0620000000001 215.019 928.9480000000001 216.43349999999998Q930.8340000000001 217.84799999999998 930.8340000000001 220.554V220.79999999999998Q930.8340000000001 223.75199999999998 928.5995 225.433Q926.3650000000001 227.114 922.7980000000001 227.114Z M940.633 226.54V197.83999999999997H943.8310000000001V214.64999999999998H944.528L952.277 206.20399999999998H956.2130000000001V206.45L947.767 215.757V216.495L957.1970000000001 226.29399999999998V226.54H953.2610000000001L944.6100000000001 217.602H943.8310000000001V226.54Z M972.859 203.006Q971.711 203.006 970.85 202.14499999999998Q969.989 201.284 969.989 200.136Q969.989 198.947 970.85 198.10649999999998Q971.711 197.266 972.859 197.266Q974.0480000000001 197.266 974.8885 198.10649999999998Q975.729 198.947 975.729 200.136Q975.729 201.284 974.8885 202.14499999999998Q974.0480000000001 203.006 972.859 203.006ZM964.167 226.54V223.588H971.301V209.156H964.9050000000001V206.20399999999998H974.499V223.588H981.1410000000001V226.54Z" fill="#6b726e"/>
</svg>